<svg xmlns="http://www.w3.org/2000/svg" viewBox="0 0 32 32"><path fill="#fff" d="M22.8 22.4l.7-2.4c.2-.6.1-1.2-.2-1.6-.3-.4-.8-.7-1.4-.7l-13.2-.2c-.1 0-.2-.1-.2-.1s0-.1.1-.2c.1-.1.2-.1.3-.1l13.4-.2c1.3-.1 2.7-1.2 3.2-2.5l.6-1.7c0-.1.1-.2 0-.3A8.2 8.2 0 0 0 10 13.2c-.9-.7-2-.9-3.2-.7a4.5 4.5 0 0 0-3.6 3.8c-1.8.2-3.2 1.7-3.2 3.6 0 .3 0 .5.1.8 0 .2.1.2.3.2h22.1c.1 0 .2-.1.3-.2v-.3zm2.7-5.9c-.1 0-.2 0-.2.1l-.4 1.5c-.2.6-.1 1.2.2 1.6.3.4.8.7 1.4.7l2.3.2c.1 0 .2.1.2.1s0 .1-.1.2c-.1.1-.2.1-.3.1l-2.4.2c-1.3.1-2.7 1.2-3.2 2.5l-.2.5c0 .1 0 .2.2.2h7.8c.1 0 .2-.1.3-.2a5.9 5.9 0 0 0-5.6-7.7z"/></svg>