<svg xmlns="http://www.w3.org/2000/svg" viewBox="0 0 32 32"><path fill="#fff" d="M26.2 13.6c.5-1.7.3-3.5-.6-5a5.8 5.8 0 0 0-5.3-2.8c-1.2-1.4-3-2.2-4.8-2.2a5.8 5.8 0 0 0-5.5 3.8 5.8 5.8 0 0 0-3.9 2.7 5.8 5.8 0 0 0 .7 6.8 5.8 5.8 0 0 0 .6 5 5.8 5.8 0 0 0 5.3 2.8c1.2 1.4 3 2.2 4.8 2.2a5.8 5.8 0 0 0 5.5-3.8 5.8 5.8 0 0 0 3.9-2.7 5.8 5.8 0 0 0-.7-6.8zM17.5 26a3.8 3.8 0 0 1-2.4-.9l.1-.1 4-2.3c.2-.1.3-.3.3-.6v-5.6l1.7 1v5.7a3.8 3.8 0 0 1-3.7 3.8zM8 21.7c-.5-.9-.7-1.9-.4-2.9l.1.1 4 2.3c.2.1.5.1.7 0l4.9-2.8v2l-4.1 2.4A3.83 3.83 0 0 1 8 21.7zM6.7 12a3.8 3.8 0 0 1 2-1.7v4.7c0 .2.1.5.3.6l4.9 2.8-1.7 1-4.1-2.3A3.83 3.83 0 0 1 6.7 12zm17 4l-4.9-2.8 1.7-1 4.1 2.4a3.83 3.83 0 0 1-1.4 7v-4.8c0-.3-.2-.5-.3-.6l-1.7-.9.1.1 1.4.8v-.2zm-1.7-3l-.1-.1-4-2.3c-.2-.1-.5-.1-.7 0l-4.9 2.8v-2L16.4 9a3.83 3.83 0 0 1 5.6 4zm-6.7 3.5L13.5 16l1.7-1 1.7 1v2l-1.7 1-1.7-1zm-2.6-1.5v-2l1.7-1 .1.1-1.5.8c-.2.1-.3.4-.3.6v1.6l-1.7-1 1.7 1zm1 5l-1.7-1v-.2l1.7 1z"/></svg>