<svg xmlns="http://www.w3.org/2000/svg" viewBox="0 0 32 32"><path fill="#fff" d="M8.5 18.5a2.5 2.5 0 0 1-2.5 2.5 2.5 2.5 0 0 1 0-5h2.5v2.5zm1.25 0a2.5 2.5 0 0 1 5 0v6.25a2.5 2.5 0 0 1-5 0V18.5zM13.5 8.5A2.5 2.5 0 0 1 11 6a2.5 2.5 0 0 1 5 0v2.5h-2.5zm0 1.25a2.5 2.5 0 0 1 0 5H7.25a2.5 2.5 0 0 1 0-5h6.25zM18.5 13.5a2.5 2.5 0 0 1 2.5-2.5 2.5 2.5 0 0 1 0 5h-2.5v-2.5zm-1.25 0a2.5 2.5 0 0 1-5 0V7.25a2.5 2.5 0 0 1 5 0v6.25zM13.5 23.5a2.5 2.5 0 0 1 2.5 2.5 2.5 2.5 0 0 1-5 0v-2.5h2.5zm4 0h1.25a2.5 2.5 0 0 1 0 5h-1.25a2.5 2.5 0 0 1 0-5z"/></svg>