<svg xmlns="http://www.w3.org/2000/svg" viewBox="0 0 32 32"><path fill="#fff" d="M16 2C8.27 2 2 8.27 2 16s6.27 14 14 14 14-6.27 14-14S23.73 2 16 2zm5.95 20.47c-.25.4-.78.52-1.17.27-3.22-1.97-7.27-2.41-12.05-1.32-.46.11-.92-.18-1.03-.64-.11-.46.18-.92.64-1.03 5.23-1.2 9.72-.68 13.34 1.54.4.24.52.78.27 1.18zm1.59-3.44c-.31.5-.97.66-1.47.35-3.69-2.27-9.31-2.93-13.67-1.6-.52.16-1.07-.13-1.23-.65-.16-.52.13-1.07.65-1.23 4.97-1.52 11.15-.78 15.37 1.83.5.3.66.97.35 1.47v-.17zm.14-3.58C19.48 13 12.13 12.7 7.84 14c-.62.19-1.28-.16-1.47-.79-.19-.62.16-1.28.79-1.47 4.93-1.5 13.13-1.21 18.31 1.89.57.33.76 1.07.43 1.64-.33.57-1.07.76-1.64.43l-.58-.25z"/></svg>